<?xml version="1.0" encoding="UTF-8"?> <svg xmlns="http://www.w3.org/2000/svg" width="32" height="40" viewBox="0 0 32 40" fill="none"><g id=".frame" clip-path="url(#clip0_3999_977)"><path id="Vector" d="M29.5102 1.3245C29.7913 1.3245 30.0608 1.43614 30.2595 1.63485C30.4582 1.83357 30.5698 2.10308 30.5698 2.38411V29.404C30.5698 29.685 30.4582 29.9545 30.2595 30.1532C30.0608 30.3519 29.7913 30.4636 29.5102 30.4636H2.49037C2.20934 30.4636 1.93983 30.3519 1.74112 30.1532C1.5424 29.9545 1.43077 29.685 1.43077 29.404V2.38411C1.43077 2.10308 1.5424 1.83357 1.74112 1.63485C1.93983 1.43614 2.20934 1.3245 2.49037 1.3245H29.5102ZM29.5102 0H2.49037C1.85806 0 1.25166 0.251182 0.804549 0.698288C0.357442 1.1454 0.106262 1.7518 0.106262 2.38411V29.404C0.106262 30.0363 0.357442 30.6427 0.804549 31.0898C1.25166 31.5369 1.85806 31.7881 2.49037 31.7881H29.5102C29.8233 31.7881 30.1333 31.7264 30.4226 31.6066C30.7118 31.4868 30.9747 31.3112 31.1961 31.0898C31.4174 30.8684 31.593 30.6056 31.7129 30.3163C31.8327 30.0271 31.8943 29.7171 31.8943 29.404V2.38411C31.8943 2.07102 31.8327 1.761 31.7129 1.47175C31.593 1.18249 31.4174 0.919673 31.1961 0.698288C30.9747 0.476904 30.7118 0.301292 30.4226 0.181479C30.1333 0.0616667 29.8233 0 29.5102 0Z" fill="#031F39"></path><g id="SCAN ME"><path d="M4.45232 35.7964C4.42823 35.5827 4.3289 35.4171 4.1543 35.2997C3.97971 35.1808 3.75996 35.1214 3.49506 35.1214C3.30542 35.1214 3.14136 35.1515 3.00289 35.2117C2.86442 35.2704 2.7568 35.3516 2.68004 35.4555C2.60478 35.5578 2.56716 35.6745 2.56716 35.8054C2.56716 35.9153 2.59274 36.0101 2.64392 36.0899C2.6966 36.1697 2.76508 36.2366 2.84937 36.2908C2.93516 36.3435 3.02697 36.3879 3.1248 36.424C3.22263 36.4587 3.3167 36.4872 3.40701 36.5098L3.85855 36.6272C4.00605 36.6633 4.15731 36.7123 4.31234 36.774C4.46737 36.8357 4.61111 36.917 4.74356 37.0178C4.87601 37.1186 4.98287 37.2436 5.06415 37.3926C5.14693 37.5416 5.18832 37.7199 5.18832 37.9276C5.18832 38.1895 5.12059 38.4221 4.98513 38.6253C4.85117 38.8285 4.65626 38.9888 4.40039 39.1062C4.14602 39.2235 3.83823 39.2822 3.477 39.2822C3.13082 39.2822 2.8313 39.2273 2.57844 39.1174C2.32558 39.0076 2.12766 38.8518 1.98468 38.6501C1.84169 38.4469 1.76267 38.2061 1.74762 37.9276H2.4475C2.46105 38.0947 2.51523 38.2339 2.61005 38.3453C2.70638 38.4552 2.82905 38.5372 2.97805 38.5914C3.12856 38.6441 3.29338 38.6704 3.47248 38.6704C3.66965 38.6704 3.845 38.6396 3.99852 38.5779C4.15355 38.5146 4.27546 38.4273 4.36427 38.316C4.45307 38.2031 4.49747 38.0714 4.49747 37.9209C4.49747 37.7839 4.45834 37.6718 4.38007 37.5845C4.30331 37.4972 4.1987 37.4249 4.06625 37.3677C3.93531 37.3105 3.78705 37.2601 3.62149 37.2165L3.07513 37.0675C2.70487 36.9666 2.41138 36.8184 2.19464 36.6227C1.97941 36.427 1.87179 36.1682 1.87179 35.8461C1.87179 35.5797 1.94404 35.3471 2.08853 35.1484C2.23302 34.9498 2.42869 34.7955 2.67552 34.6856C2.92236 34.5742 3.20081 34.5186 3.51086 34.5186C3.82393 34.5186 4.10012 34.5735 4.33943 34.6834C4.58025 34.7932 4.7699 34.9445 4.90837 35.1372C5.04684 35.3283 5.11908 35.5481 5.1251 35.7964H4.45232Z" fill="#031F39"></path><path d="M9.86227 36.0854H9.15788C9.13078 35.9349 9.08036 35.8024 9.00661 35.688C8.93286 35.5736 8.84256 35.4766 8.73569 35.3968C8.62883 35.317 8.50917 35.2568 8.37672 35.2162C8.24578 35.1755 8.10655 35.1552 7.95905 35.1552C7.69265 35.1552 7.45408 35.2222 7.24337 35.3562C7.03416 35.4901 6.86859 35.6865 6.74668 35.9454C6.62627 36.2043 6.56606 36.5204 6.56606 36.8936C6.56606 37.2699 6.62627 37.5875 6.74668 37.8464C6.86859 38.1052 7.03491 38.3009 7.24563 38.4334C7.45634 38.5658 7.6934 38.632 7.95679 38.632C8.10279 38.632 8.24126 38.6125 8.37221 38.5733C8.50466 38.5327 8.62431 38.4732 8.73118 38.395C8.83804 38.3167 8.92835 38.2211 9.0021 38.1083C9.07735 37.9939 9.12928 37.8629 9.15788 37.7154L9.86227 37.7177C9.82464 37.945 9.75165 38.1542 9.64328 38.3453C9.53641 38.535 9.3987 38.699 9.23012 38.8375C9.06305 38.9745 8.8719 39.0806 8.65667 39.1558C8.44144 39.2311 8.20664 39.2687 7.95228 39.2687C7.55192 39.2687 7.1952 39.1739 6.88214 38.9842C6.56908 38.7931 6.32224 38.5199 6.14162 38.1647C5.96251 37.8095 5.87296 37.3858 5.87296 36.8936C5.87296 36.4 5.96326 35.9763 6.14388 35.6226C6.32449 35.2674 6.57133 34.9949 6.8844 34.8053C7.19746 34.6141 7.55342 34.5186 7.95228 34.5186C8.19761 34.5186 8.42639 34.5539 8.63861 34.6247C8.85234 34.6939 9.04424 34.7962 9.21432 34.9317C9.3844 35.0657 9.52513 35.2297 9.6365 35.4239C9.74788 35.6165 9.82314 35.837 9.86227 36.0854Z" fill="#031F39"></path><path d="M11.0566 39.2055H10.3161L11.98 34.5818H12.786L14.4499 39.2055H13.7094L12.4022 35.4216H12.366L11.0566 39.2055ZM11.1808 37.3948H13.5829V37.9818H11.1808V37.3948Z" fill="#031F39"></path><path d="M18.8495 34.5818V39.2055H18.2083L15.8581 35.8145H15.8152V39.2055H15.1176V34.5818H15.7633L18.1158 37.9773H18.1587V34.5818H18.8495Z" fill="#031F39"></path><path d="M21.5497 34.5818H22.3963L23.8683 38.176H23.9225L25.3945 34.5818H26.2411V39.2055H25.5774V35.8596H25.5345L24.1709 39.1987H23.62L22.2563 35.8574H22.2135V39.2055H21.5497V34.5818Z" fill="#031F39"></path><path d="M27.2554 39.2055V34.5818H30.1543V35.1823H27.953V36.5911H30.003V37.1894H27.953V38.6049H30.1814V39.2055H27.2554Z" fill="#031F39"></path></g></g><defs><clipPath id="clip0_3999_977"><rect width="31.7881" height="40" fill="white" transform="translate(0.106262)"></rect></clipPath></defs></svg> 