<?xml version="1.0" standalone="no"?>
<!DOCTYPE svg PUBLIC "-//W3C//DTD SVG 20010904//EN"
 "http://www.w3.org/TR/2001/REC-SVG-20010904/DTD/svg10.dtd">
<svg version="1.0" xmlns="http://www.w3.org/2000/svg"
 width="370.000000pt" height="370.000000pt" viewBox="0 0 370.000000 370.000000"
 preserveAspectRatio="xMidYMid meet">

<g transform="translate(0.000000,370.000000) scale(0.100000,-0.100000)"
 stroke="none">

<path d="M400 2950 l0 -350 350 0 350 0 0 350 0 350 -350 0 -350 0 0 -350z
m600 0 l0 -250 -250 0 -250 0 0 250 0 250 250 0 250 0 0 -250z"/>
<path d="M600 2950 l0 -150 150 0 150 0 0 150 0 150 -150 0 -150 0 0 -150z"/>
<path d="M1200 3100 l0 -200 50 0 50 0 0 -50 0 -50 -50 0 -50 0 0 -100 0 -100
50 0 50 0 0 50 0 50 50 0 50 0 0 -150 0 -150 50 0 50 0 0 50 0 50 50 0 50 0 0
-50 0 -50 50 0 50 0 0 -100 0 -100 -50 0 -50 0 0 -50 0 -50 -50 0 -50 0 0 -50
0 -50 -100 0 -100 0 0 -50 0 -50 -50 0 -50 0 0 -200 0 -200 -100 0 -100 0 0
50 0 50 50 0 50 0 0 50 0 50 -50 0 -50 0 0 50 0 50 50 0 50 0 0 50 0 50 -50 0
-50 0 0 50 0 50 50 0 50 0 0 50 0 50 -50 0 -50 0 0 50 0 50 150 0 150 0 0 -50
0 -50 50 0 50 0 0 50 0 50 50 0 50 0 0 50 0 50 -150 0 -150 0 0 50 0 50 -50 0
-50 0 0 50 0 50 -150 0 -150 0 0 -50 0 -50 150 0 150 0 0 -50 0 -50 -50 0 -50
0 0 -50 0 -50 -100 0 -100 0 0 50 0 50 -50 0 -50 0 0 50 0 50 -50 0 -50 0 0
50 0 50 -100 0 -100 0 0 -150 0 -150 50 0 50 0 0 -50 0 -50 -50 0 -50 0 0
-100 0 -100 50 0 50 0 0 -100 0 -100 -50 0 -50 0 0 -100 0 -100 100 0 100 0 0
50 0 50 -50 0 -50 0 0 50 0 50 50 0 50 0 0 50 0 50 50 0 50 0 0 150 0 150 50
0 50 0 0 -150 0 -150 50 0 50 0 0 -50 0 -50 -100 0 -100 0 0 -200 0 -200 -150
0 -150 0 0 -50 0 -50 150 0 150 0 0 50 0 50 50 0 50 0 0 -50 0 -50 50 0 50 0
0 50 0 50 -50 0 -50 0 0 50 0 50 50 0 50 0 0 50 0 50 50 0 50 0 0 -50 0 -50
100 0 100 0 0 50 0 50 50 0 50 0 0 -50 0 -50 50 0 50 0 0 100 0 100 -50 0 -50
0 0 50 0 50 50 0 50 0 0 50 0 50 -50 0 -50 0 0 50 0 50 100 0 100 0 0 -100 0
-100 50 0 50 0 0 -50 0 -50 50 0 50 0 0 -50 0 -50 100 0 100 0 0 -50 0 -50
-50 0 -50 0 0 -50 0 -50 -50 0 -50 0 0 50 0 50 -50 0 -50 0 0 -50 0 -50 -50 0
-50 0 0 -50 0 -50 50 0 50 0 0 -50 0 -50 -50 0 -50 0 0 -50 0 -50 -50 0 -50 0
0 50 0 50 -50 0 -50 0 0 50 0 50 50 0 50 0 0 50 0 50 -200 0 -200 0 0 -50 0
-50 100 0 100 0 0 -50 0 -50 50 0 50 0 0 -50 0 -50 -50 0 -50 0 0 -100 0 -100
50 0 50 0 0 -50 0 -50 50 0 50 0 0 -100 0 -100 -50 0 -50 0 0 50 0 50 -50 0
-50 0 0 -100 0 -100 200 0 200 0 0 50 0 50 50 0 50 0 0 -50 0 -50 150 0 150 0
0 50 0 50 -50 0 -50 0 0 50 0 50 50 0 50 0 0 50 0 50 50 0 50 0 0 -150 0 -150
100 0 100 0 0 100 0 100 50 0 50 0 0 -100 0 -100 50 0 50 0 0 50 0 50 100 0
100 0 0 50 0 50 -150 0 -150 0 0 50 0 50 100 0 100 0 0 50 0 50 50 0 50 0 0
-50 0 -50 50 0 50 0 0 50 0 50 100 0 100 0 0 50 0 50 -50 0 -50 0 0 50 0 50
100 0 100 0 0 50 0 50 -100 0 -100 0 0 50 0 50 50 0 50 0 0 50 0 50 -150 0
-150 0 0 50 0 50 50 0 50 0 0 50 0 50 100 0 100 0 0 -50 0 -50 50 0 50 0 0
-50 0 -50 50 0 50 0 0 -150 0 -150 50 0 50 0 0 300 0 300 -50 0 -50 0 0 50 0
50 50 0 50 0 0 150 0 150 -50 0 -50 0 0 50 0 50 50 0 50 0 0 200 0 200 -200 0
-200 0 0 -50 0 -50 -50 0 -50 0 0 50 0 50 -50 0 -50 0 0 -50 0 -50 -50 0 -50
0 0 -50 0 -50 -50 0 -50 0 0 250 0 250 -100 0 -100 0 0 50 0 50 50 0 50 0 0
50 0 50 50 0 50 0 0 50 0 50 -50 0 -50 0 0 50 0 50 -150 0 -150 0 0 50 0 50
-50 0 -50 0 0 -100 0 -100 -100 0 -100 0 0 -100 0 -100 -50 0 -50 0 0 150 0
150 -100 0 -100 0 0 -50 0 -50 50 0 50 0 0 -150 0 -150 50 0 50 0 0 -50 0 -50
-50 0 -50 0 0 -50 0 -50 -50 0 -50 0 0 200 0 200 -50 0 -50 0 0 50 0 50 -50 0
-50 0 0 100 0 100 -50 0 -50 0 0 -200z m900 -50 l0 -50 50 0 50 0 0 50 0 50
50 0 50 0 0 -50 0 -50 -50 0 -50 0 0 -100 0 -100 50 0 50 0 0 -50 0 -50 50 0
50 0 0 -50 0 -50 -50 0 -50 0 0 50 0 50 -50 0 -50 0 0 -50 0 -50 -50 0 -50 0
0 50 0 50 50 0 50 0 0 50 0 50 -50 0 -50 0 0 100 0 100 -50 0 -50 0 0 50 0 50
50 0 50 0 0 -50z m-200 -200 l0 -50 50 0 50 0 0 -150 0 -150 50 0 50 0 0 -50
0 -50 -100 0 -100 0 0 -150 0 -150 -100 0 -100 0 0 -50 0 -50 50 0 50 0 0 -50
0 -50 -50 0 -50 0 0 50 0 50 -50 0 -50 0 0 -50 0 -50 -50 0 -50 0 0 50 0 50
50 0 50 0 0 50 0 50 50 0 50 0 0 50 0 50 50 0 50 0 0 150 0 150 -100 0 -100 0
0 50 0 50 50 0 50 0 0 50 0 50 50 0 50 0 0 -100 0 -100 50 0 50 0 0 150 0 150
-50 0 -50 0 0 50 0 50 50 0 50 0 0 -50z m500 -500 l0 -150 100 0 100 0 0 50 0
50 100 0 100 0 0 -50 0 -50 50 0 50 0 0 50 0 50 150 0 150 0 0 -50 0 -50 -50
0 -50 0 0 -100 0 -100 -150 0 -150 0 0 50 0 50 -50 0 -50 0 0 -50 0 -50 -50 0
-50 0 0 -50 0 -50 50 0 50 0 0 -50 0 -50 50 0 50 0 0 -50 0 -50 50 0 50 0 0
50 0 50 100 0 100 0 0 50 0 50 50 0 50 0 0 -50 0 -50 -50 0 -50 0 0 -150 0
-150 50 0 50 0 0 -50 0 -50 -50 0 -50 0 0 50 0 50 -50 0 -50 0 0 50 0 50 -100
0 -100 0 0 -50 0 -50 -50 0 -50 0 0 -50 0 -50 -50 0 -50 0 0 -50 0 -50 -50 0
-50 0 0 50 0 50 -50 0 -50 0 0 -50 0 -50 -50 0 -50 0 0 -50 0 -50 -50 0 -50 0
0 50 0 50 50 0 50 0 0 50 0 50 -50 0 -50 0 0 50 0 50 50 0 50 0 0 50 0 50 -50
0 -50 0 0 50 0 50 50 0 50 0 0 100 0 100 -50 0 -50 0 0 -50 0 -50 -50 0 -50 0
0 -100 0 -100 -150 0 -150 0 0 100 0 100 50 0 50 0 0 -50 0 -50 50 0 50 0 0
50 0 50 50 0 50 0 0 100 0 100 -50 0 -50 0 0 50 0 50 50 0 50 0 0 -50 0 -50
50 0 50 0 0 50 0 50 50 0 50 0 0 200 0 200 50 0 50 0 0 -150z m-1800 0 l0 -50
-50 0 -50 0 0 50 0 50 50 0 50 0 0 -50z m1600 -100 l0 -50 -100 0 -100 0 0 50
0 50 100 0 100 0 0 -50z m-1500 -100 l0 -50 -50 0 -50 0 0 50 0 50 50 0 50 0
0 -50z m300 -100 l0 -50 -50 0 -50 0 0 50 0 50 50 0 50 0 0 -50z m-400 -100
l0 -50 -50 0 -50 0 0 50 0 50 50 0 50 0 0 -50z m400 -100 l0 -50 -50 0 -50 0
0 50 0 50 50 0 50 0 0 -50z m700 -100 l0 -50 -50 0 -50 0 0 50 0 50 50 0 50 0
0 -50z m-800 -200 l0 -50 -50 0 -50 0 0 50 0 50 50 0 50 0 0 -50z m1200 -200
l0 -150 -50 0 -50 0 0 50 0 50 -50 0 -50 0 0 50 0 50 50 0 50 0 0 50 0 50 50
0 50 0 0 -150z m-400 -100 l0 -50 100 0 100 0 0 -50 0 -50 -100 0 -100 0 0 50
0 50 -50 0 -50 0 0 50 0 50 50 0 50 0 0 -50z m1100 -200 l0 -150 -150 0 -150
0 0 150 0 150 150 0 150 0 0 -150z m-500 0 l0 -50 -150 0 -150 0 0 -50 0 -50
50 0 50 0 0 -50 0 -50 -50 0 -50 0 0 -50 0 -50 -50 0 -50 0 0 -50 0 -50 -50 0
-50 0 0 -50 0 -50 -50 0 -50 0 0 50 0 50 -50 0 -50 0 0 -50 0 -50 -50 0 -50 0
0 100 0 100 -50 0 -50 0 0 50 0 50 -50 0 -50 0 0 100 0 100 50 0 50 0 0 -100
0 -100 50 0 50 0 0 50 0 50 50 0 50 0 0 50 0 50 50 0 50 0 0 -50 0 -50 -50 0
-50 0 0 -50 0 -50 50 0 50 0 0 -50 0 -50 100 0 100 0 0 50 0 50 -50 0 -50 0 0
100 0 100 100 0 100 0 0 50 0 50 150 0 150 0 0 -50z m0 -200 l0 -50 50 0 50 0
0 -50 0 -50 -50 0 -50 0 0 -50 0 -50 -50 0 -50 0 0 50 0 50 50 0 50 0 0 50 0
50 -50 0 -50 0 0 50 0 50 50 0 50 0 0 -50z"/>
<path d="M2600 2150 l0 -50 -150 0 -150 0 0 -50 0 -50 150 0 150 0 0 50 0 50
50 0 50 0 0 50 0 50 -50 0 -50 0 0 -50z"/>
<path d="M2900 2150 l0 -50 50 0 50 0 0 50 0 50 -50 0 -50 0 0 -50z"/>
<path d="M2400 1850 l0 -50 100 0 100 0 0 50 0 50 -100 0 -100 0 0 -50z"/>
<path d="M2400 1650 l0 -50 100 0 100 0 0 -50 0 -50 -50 0 -50 0 0 -50 0 -50
50 0 50 0 0 50 0 50 50 0 50 0 0 50 0 50 -50 0 -50 0 0 50 0 50 -100 0 -100 0
0 -50z"/>
<path d="M2600 1050 l0 -50 50 0 50 0 0 50 0 50 -50 0 -50 0 0 -50z"/>
<path d="M2600 2950 l0 -350 350 0 350 0 0 350 0 350 -350 0 -350 0 0 -350z
m600 0 l0 -250 -250 0 -250 0 0 250 0 250 250 0 250 0 0 -250z"/>
<path d="M2800 2950 l0 -150 150 0 150 0 0 150 0 150 -150 0 -150 0 0 -150z"/>
<path d="M400 750 l0 -350 350 0 350 0 0 350 0 350 -350 0 -350 0 0 -350z
m600 0 l0 -250 -250 0 -250 0 0 250 0 250 250 0 250 0 0 -250z"/>
<path d="M600 750 l0 -150 150 0 150 0 0 150 0 150 -150 0 -150 0 0 -150z"/>
<path d="M3100 850 l0 -50 50 0 50 0 0 -50 0 -50 -150 0 -150 0 0 -150 0 -150
50 0 50 0 0 100 0 100 50 0 50 0 0 -100 0 -100 50 0 50 0 0 50 0 50 50 0 50 0
0 150 0 150 -50 0 -50 0 0 50 0 50 -50 0 -50 0 0 -50z"/>
</g>
</svg>
