<?xml version="1.0" encoding="UTF-8"?> <svg xmlns="http://www.w3.org/2000/svg" width="30" height="30" viewBox="0 0 30 30" fill="none"><g id=".frame" clip-path="url(#clip0_3999_970)"><path id="Vector" d="M27.75 1.25C28.0152 1.25 28.2696 1.35536 28.4571 1.54289C28.6446 1.73043 28.75 1.98478 28.75 2.25V27.75C28.75 28.0152 28.6446 28.2696 28.4571 28.4571C28.2696 28.6446 28.0152 28.75 27.75 28.75H2.25C1.98478 28.75 1.73043 28.6446 1.54289 28.4571C1.35536 28.2696 1.25 28.0152 1.25 27.75V2.25C1.25 1.98478 1.35536 1.73043 1.54289 1.54289C1.73043 1.35536 1.98478 1.25 2.25 1.25H27.75ZM27.75 0H2.25C1.65326 0 1.08096 0.237055 0.659008 0.659012C0.237051 1.08097 0 1.65326 0 2.25V27.75C0 28.3467 0.237051 28.919 0.659008 29.341C1.08096 29.7629 1.65326 30 2.25 30H27.75C28.3467 30 28.919 29.7629 29.341 29.341C29.7629 28.919 30 28.3467 30 27.75V2.25C30 1.65326 29.7629 1.08097 29.341 0.659012C28.919 0.237055 28.3467 0 27.75 0Z" fill="#031F39"></path></g><defs><clipPath id="clip0_3999_970"><rect width="30" height="30" fill="white"></rect></clipPath></defs></svg> 