<?xml version="1.0" encoding="UTF-8"?> <svg xmlns="http://www.w3.org/2000/svg" width="36" height="40" viewBox="0 0 36 40" fill="none"><path d="M34.7029 0.14502H6.87686C6.63674 0.14502 6.44208 0.339678 6.44208 0.579802V28.4059C6.44208 28.646 6.63674 28.8407 6.87686 28.8407H34.7029C34.9431 28.8407 35.1377 28.646 35.1377 28.4059V0.579802C35.1377 0.339678 34.9431 0.14502 34.7029 0.14502Z" fill="white"></path><path d="M34.5913 0.144928C34.6632 0.144927 34.7344 0.159108 34.8007 0.186656C34.8671 0.214205 34.9274 0.25458 34.9782 0.30547C35.0289 0.356359 35.0692 0.416762 35.0965 0.483219C35.1239 0.549676 35.1379 0.620881 35.1377 0.692754V28.2928C35.1379 28.3646 35.1239 28.4358 35.0965 28.5023C35.0692 28.5687 35.0289 28.6291 34.9782 28.68C34.9274 28.7309 34.8671 28.7713 34.8007 28.7988C34.7344 28.8264 34.6632 28.8406 34.5913 28.8406H6.98987C6.84458 28.8406 6.70524 28.7829 6.6025 28.6801C6.49977 28.5774 6.44205 28.438 6.44205 28.2928V0.692754C6.44205 0.547461 6.49977 0.408119 6.6025 0.305382C6.70524 0.202645 6.84458 0.144928 6.98987 0.144928H34.5913ZM34.5913 0H6.98987C6.80614 0 6.62994 0.0729863 6.50002 0.202903C6.3701 0.332819 6.29712 0.509024 6.29712 0.692754V28.2928C6.29712 28.4765 6.3701 28.6527 6.50002 28.7826C6.62994 28.9125 6.80614 28.9855 6.98987 28.9855H34.5913C34.7748 28.9851 34.9506 28.912 35.0802 28.7821C35.2098 28.6522 35.2826 28.4762 35.2826 28.2928V0.692754C35.2826 0.509275 35.2098 0.333289 35.0802 0.203415C34.9506 0.0735396 34.7748 0.000383847 34.5913 0Z" fill="#E8EBF2"></path><path d="M4.6591 17.8009C4.6794 17.4589 4.70839 17.1068 4.73738 16.7648C4.76637 16.4228 4.81421 16.0808 4.87219 15.7504C4.93018 15.42 4.99686 15.0867 5.07369 14.765C5.15039 14.4665 5.25373 14.1755 5.38246 13.8955C5.39261 13.8651 5.40275 13.8245 5.41145 13.7854C5.42946 13.7106 5.43238 13.6329 5.42005 13.557C5.40772 13.481 5.38038 13.4083 5.33963 13.343C5.29888 13.2777 5.24553 13.2212 5.1827 13.1767C5.11987 13.1323 5.04881 13.1008 4.97367 13.084L4.94468 13.0739C4.91639 13.066 4.88705 13.0626 4.8577 13.0637C4.82871 13.0637 4.80986 13.0536 4.78087 13.0536C4.75188 13.0536 4.6852 13.0435 4.63591 13.0435C4.54024 13.0435 4.44311 13.0536 4.34599 13.0536C4.15319 13.0739 3.96908 13.0942 3.78643 13.1246C3.42198 13.1832 3.06135 13.2636 2.70646 13.3652C2.35822 13.4714 2.01691 13.5992 1.68449 13.7477C1.51923 13.8173 1.35542 13.9086 1.19162 13.9781C1.02781 14.0477 0.874149 14.1593 0.71904 14.2404C0.693505 14.2535 0.673571 14.2754 0.662914 14.302C0.652256 14.3287 0.651595 14.3583 0.661056 14.3853C0.663902 14.4012 0.670028 14.4163 0.679039 14.4297C0.68805 14.443 0.699745 14.4544 0.713386 14.463C0.727027 14.4716 0.742313 14.4772 0.758262 14.4796C0.774211 14.4819 0.790475 14.4809 0.806018 14.4766H0.816166C0.99012 14.4361 1.15393 14.3853 1.31773 14.3448C1.48154 14.3042 1.65549 14.2651 1.8193 14.2448C2.15398 14.1789 2.49321 14.1387 2.83403 14.1245C3.04713 14.1144 3.26892 14.1144 3.48056 14.1144C3.04151 14.6512 2.65692 15.2303 2.33247 15.8432C1.90573 16.6565 1.55722 17.5086 1.29164 18.3878C0.764552 20.1362 0.497863 21.9525 0.50015 23.7786C0.492728 25.5917 0.760069 27.3956 1.29309 29.1287C1.83074 30.8367 2.66491 32.4368 3.75744 33.8557C3.78048 33.8861 3.81453 33.9061 3.85224 33.9115C3.88995 33.917 3.92828 33.9073 3.95894 33.8847C3.97522 33.8733 3.98898 33.8586 3.99934 33.8416C4.0097 33.8246 4.01646 33.8057 4.01918 33.786C4.0219 33.7663 4.02053 33.7462 4.01515 33.727C4.00978 33.7079 4.00051 33.69 3.98793 33.6746C2.98134 32.2538 2.23528 30.6655 1.78451 28.9838C0.902843 25.6034 1.04053 22.038 2.18026 18.7356C2.46159 17.9319 2.81631 17.1558 3.23993 16.417C3.50279 15.9615 3.80652 15.5308 4.14739 15.1302C4.14739 15.3302 4.14739 15.5215 4.15608 15.7229C4.17638 16.0852 4.19522 16.4373 4.23436 16.7894C4.2735 17.1416 4.31119 17.4937 4.36918 17.8444C4.37374 17.8812 4.39048 17.9155 4.41674 17.9418C4.443 17.968 4.47728 17.9847 4.51414 17.9893C4.55315 17.974 4.58725 17.9484 4.6128 17.9152C4.63834 17.8821 4.65434 17.8425 4.6591 17.8009Z" fill="#031F39"></path><path d="M7.26645 39.1181C6.9051 39.1181 6.56017 39.0524 6.23167 38.921C5.90974 38.7961 5.64694 38.599 5.44326 38.3297C5.23959 38.0669 5.13776 37.7384 5.13776 37.3442C5.13776 36.996 5.21003 36.7266 5.35457 36.5361C5.49911 36.339 5.6765 36.201 5.88674 36.1221C6.09698 36.0433 6.29737 36.0039 6.4879 36.0039C6.29737 36.2076 6.15283 36.4244 6.05428 36.6543C5.9623 36.8843 5.91631 37.1142 5.91631 37.3442C5.91631 37.5807 5.96887 37.8008 6.07399 38.0045C6.18568 38.2081 6.35322 38.3724 6.5766 38.4972C6.80655 38.622 7.09235 38.6845 7.43399 38.6845C7.72964 38.6845 8.01872 38.6319 8.30123 38.5268C8.58375 38.4217 8.8137 38.2673 8.99109 38.0636C9.17505 37.8533 9.26703 37.5938 9.26703 37.285C9.26703 37.0091 9.19148 36.7726 9.04037 36.5755C8.89582 36.3718 8.70529 36.1911 8.46877 36.0334C8.23882 35.8758 7.99244 35.7247 7.72964 35.5801C7.47341 35.4356 7.22703 35.2845 6.99051 35.1268C6.76056 34.9625 6.57003 34.7753 6.41892 34.565C6.27437 34.3482 6.2021 34.092 6.2021 33.7963C6.2021 33.5204 6.2678 33.2313 6.39921 32.9291C6.53061 32.6269 6.72114 32.3411 6.9708 32.0717C7.22046 31.8023 7.5194 31.5855 7.86761 31.4213C8.21582 31.2504 8.60346 31.165 9.03051 31.165C9.43785 31.165 9.72365 31.2603 9.8879 31.4508C10.0522 31.6348 10.1343 31.8746 10.1343 32.1703C10.1343 32.4068 10.0916 32.663 10.0062 32.939C9.92075 33.2083 9.81892 33.4678 9.70065 33.7175C9.58239 33.9672 9.4707 34.1774 9.36558 34.3482C9.23418 34.3219 9.13892 34.2694 9.07979 34.1905C9.02723 34.1117 9.00094 34.0132 9.00094 33.8949C9.00094 33.7569 9.03051 33.6025 9.08964 33.4317C9.14877 33.2543 9.21447 33.0736 9.28674 32.8897C9.35901 32.6991 9.42471 32.5152 9.48384 32.3378C9.54297 32.1538 9.57254 31.9929 9.57254 31.8549C9.57254 31.7301 9.53312 31.6315 9.45428 31.5592C9.38201 31.487 9.24075 31.4508 9.03051 31.4508C8.72172 31.4508 8.43592 31.5231 8.17312 31.6676C7.91032 31.8056 7.68037 31.9863 7.48326 32.2097C7.28616 32.4265 7.13505 32.6597 7.02993 32.9094C6.92481 33.1525 6.87225 33.3726 6.87225 33.5697C6.87225 33.8128 6.94452 34.0197 7.08906 34.1905C7.2336 34.3614 7.41756 34.519 7.64094 34.6636C7.8709 34.8016 8.11399 34.9395 8.37022 35.0775C8.63302 35.2155 8.87611 35.3732 9.0995 35.5505C9.32945 35.7214 9.51669 35.925 9.66123 36.1616C9.80578 36.3915 9.87805 36.674 9.87805 37.0091C9.87805 37.3507 9.80249 37.653 9.65138 37.9158C9.50027 38.172 9.2966 38.3888 9.04037 38.5662C8.78413 38.7502 8.50162 38.8881 8.19283 38.9801C7.88404 39.0721 7.57524 39.1181 7.26645 39.1181Z" fill="#031F39"></path><path d="M11.6214 38.8126C11.2995 38.8126 11.0301 38.7075 10.8133 38.4972C10.603 38.287 10.4979 37.9683 10.4979 37.5413C10.4979 37.2128 10.5603 36.8941 10.6852 36.5853C10.81 36.27 10.9775 35.9907 11.1878 35.7476C11.398 35.498 11.6312 35.3009 11.8875 35.1563C12.1503 35.0052 12.4098 34.9297 12.666 34.9297C12.9354 34.9297 13.1226 35.0052 13.2278 35.1563C13.3329 35.3075 13.3855 35.4717 13.3855 35.6491C13.3855 35.8331 13.3395 36.0039 13.2475 36.1616C13.1621 36.3127 13.0438 36.3882 12.8927 36.3882C12.781 36.3882 12.6857 36.3357 12.6069 36.2305C12.6923 36.178 12.7712 36.0794 12.8434 35.9349C12.9157 35.7838 12.9518 35.6261 12.9518 35.4619C12.9518 35.3961 12.9354 35.3436 12.9026 35.3042C12.8763 35.2647 12.8237 35.245 12.7449 35.245C12.574 35.245 12.3934 35.3239 12.2028 35.4816C12.0189 35.6327 11.8481 35.8298 11.6904 36.0729C11.5327 36.316 11.4046 36.5755 11.306 36.8514C11.2075 37.1208 11.1582 37.3704 11.1582 37.6004C11.1582 37.7975 11.2042 37.9815 11.2962 38.1523C11.3947 38.3165 11.5853 38.3987 11.8678 38.3987C12.124 38.3987 12.3868 38.3264 12.6562 38.1818C12.9255 38.0373 13.1752 37.8336 13.4052 37.5708C13.6351 37.3015 13.8224 36.9861 13.9669 36.6247L14.1147 36.743C13.9636 37.1438 13.7534 37.5019 13.484 37.8172C13.2146 38.126 12.919 38.3691 12.597 38.5465C12.2751 38.7239 11.9499 38.8126 11.6214 38.8126Z" fill="#031F39"></path><path d="M14.2642 38.7239C14.054 38.7239 13.8766 38.6549 13.7321 38.5169C13.581 38.379 13.5054 38.1687 13.5054 37.8862C13.5054 37.6562 13.558 37.4066 13.6631 37.1372C13.7682 36.8613 13.9127 36.5919 14.0967 36.3291C14.2807 36.0597 14.4876 35.8166 14.7176 35.5998C14.9541 35.383 15.2038 35.2089 15.4666 35.0775C15.7294 34.9461 15.9922 34.8804 16.255 34.8804C16.5178 34.8804 16.7379 34.9494 16.9153 35.0874C17.0992 35.2253 17.1912 35.4093 17.1912 35.6392C17.1912 35.8035 17.1386 35.9185 17.0335 35.9842C16.935 36.0499 16.8101 36.0794 16.659 36.0729C16.6722 36.0137 16.682 35.9546 16.6886 35.8955C16.7017 35.8363 16.7083 35.7772 16.7083 35.7181C16.7083 35.5735 16.6755 35.4487 16.6098 35.3436C16.5441 35.2319 16.4225 35.1761 16.2451 35.1761C16.0612 35.1761 15.8739 35.2418 15.6834 35.3732C15.4928 35.498 15.3089 35.6655 15.1315 35.8758C14.9607 36.086 14.8063 36.316 14.6683 36.5656C14.5303 36.8087 14.4219 37.0485 14.3431 37.285C14.2642 37.5216 14.2248 37.7351 14.2248 37.9256C14.2248 38.1687 14.307 38.2903 14.4712 38.2903C14.6223 38.2903 14.7866 38.218 14.964 38.0734C15.1479 37.9289 15.3319 37.7482 15.5158 37.5314C15.7064 37.308 15.887 37.0781 16.0579 36.8416C16.2287 36.605 16.3798 36.3948 16.5112 36.2108C16.5309 36.1714 16.5506 36.1517 16.5703 36.1517C16.6032 36.1583 16.6525 36.1714 16.7182 36.1911C16.7839 36.2108 16.843 36.2404 16.8956 36.2798C16.9481 36.3192 16.9744 36.3685 16.9744 36.4276C16.9744 36.4868 16.9448 36.5689 16.8857 36.674C16.8331 36.7726 16.7674 36.8876 16.6886 37.019C16.6163 37.1438 16.5506 37.2719 16.4915 37.4033C16.4389 37.5347 16.4127 37.6562 16.4127 37.7679C16.4127 37.8665 16.4356 37.9618 16.4816 38.0537C16.5342 38.1391 16.6163 38.1818 16.728 38.1818C16.8988 38.1818 17.1288 38.057 17.4179 37.8074C17.707 37.5511 17.9993 37.1569 18.295 36.6247L18.4231 36.7529C18.2785 37.1076 18.0979 37.423 17.8811 37.699C17.6642 37.9683 17.431 38.1786 17.1813 38.3297C16.9383 38.4808 16.6952 38.5563 16.4521 38.5563C16.2024 38.5563 16.0152 38.4775 15.8903 38.3198C15.7721 38.1687 15.7129 38.0045 15.7129 37.8271C15.7129 37.7942 15.7129 37.7614 15.7129 37.7285C15.7195 37.6957 15.7261 37.6595 15.7327 37.6201C15.4567 37.9815 15.2038 38.2541 14.9738 38.4381C14.7439 38.6286 14.5073 38.7239 14.2642 38.7239Z" fill="#031F39"></path><path d="M21.3249 38.4578C21.0819 38.4578 20.8979 38.3954 20.7731 38.2705C20.6548 38.1523 20.5957 37.9979 20.5957 37.8074C20.5957 37.676 20.6187 37.5347 20.6647 37.3836C20.7172 37.2325 20.7665 37.0781 20.8125 36.9204C20.8585 36.7627 20.8815 36.6116 20.8815 36.4671C20.8815 36.2962 20.8453 36.178 20.7731 36.1123C20.7008 36.0466 20.6121 36.0137 20.507 36.0137C20.3033 36.0137 20.0963 36.0959 19.8861 36.2601C19.6759 36.4244 19.4722 36.6346 19.2751 36.8908C19.0846 37.1471 18.9039 37.4099 18.7331 37.6792C18.5622 37.9486 18.4111 38.1917 18.2797 38.4085C18.168 38.4085 18.0629 38.3888 17.9644 38.3494C17.8592 38.31 17.7771 38.2508 17.718 38.172C17.718 38.1391 17.7541 38.0373 17.8264 37.8665C17.8921 37.6957 17.9709 37.4887 18.0629 37.2456C18.1549 37.0025 18.2337 36.7496 18.2994 36.4868C18.3717 36.224 18.4078 35.9875 18.4078 35.7772C18.4473 35.7247 18.5097 35.6754 18.5951 35.6294C18.6871 35.5834 18.7823 35.5604 18.8809 35.5604C19.078 35.5604 19.1765 35.6491 19.1765 35.8265C19.1765 35.925 19.1503 36.0827 19.0977 36.2995C19.0517 36.5098 18.9893 36.7397 18.9105 36.9894C19.0813 36.7332 19.2751 36.4835 19.4919 36.2404C19.7087 35.9907 19.9354 35.7871 20.1719 35.6294C20.415 35.4651 20.6548 35.383 20.8913 35.383C21.1607 35.383 21.3545 35.4783 21.4728 35.6688C21.5976 35.8528 21.66 36.0564 21.66 36.2798C21.66 36.4835 21.6272 36.6707 21.5615 36.8416C21.4958 37.0124 21.4268 37.1766 21.3545 37.3343C21.2888 37.492 21.256 37.6497 21.256 37.8074C21.256 37.9388 21.2822 38.0307 21.3348 38.0833C21.3939 38.1293 21.4596 38.1523 21.5319 38.1523C21.6961 38.1523 21.8604 38.0767 22.0247 37.9256C22.1955 37.7745 22.3564 37.5807 22.5076 37.3442C22.6652 37.1076 22.8032 36.8678 22.9215 36.6247L23.0496 36.7627C22.9116 37.0847 22.7539 37.3737 22.5765 37.63C22.4057 37.8796 22.2152 38.08 22.0049 38.2311C21.8013 38.3822 21.5746 38.4578 21.3249 38.4578Z" fill="#031F39"></path><path d="M30.2885 38.5662C30.052 38.5662 29.8779 38.4939 29.7662 38.3494C29.6545 38.2048 29.5987 38.0307 29.5987 37.8271C29.5987 37.6694 29.6217 37.5117 29.6676 37.354C29.7202 37.1898 29.7695 37.0321 29.8155 36.881C29.8615 36.7233 29.8845 36.5853 29.8845 36.4671C29.8845 36.3422 29.8582 36.2568 29.8056 36.2108C29.7531 36.1583 29.6906 36.132 29.6184 36.132C29.4607 36.132 29.2833 36.2568 29.0862 36.5065C28.8891 36.7496 28.6394 37.1011 28.3372 37.561C28.2321 37.7187 28.1401 37.8796 28.0613 38.0439C27.9824 38.2081 27.9102 38.3527 27.8445 38.4775C27.7853 38.4775 27.7131 38.4709 27.6276 38.4578C27.5488 38.4447 27.4765 38.4217 27.4108 38.3888C27.3451 38.356 27.3123 38.3133 27.3123 38.2607C27.3123 38.2147 27.3419 38.1063 27.401 37.9355C27.4667 37.7581 27.5389 37.5544 27.6178 37.3245C27.7032 37.0945 27.7788 36.8646 27.8445 36.6346C27.9102 36.3981 27.943 36.1977 27.943 36.0334C27.943 35.9283 27.9233 35.8429 27.8839 35.7772C27.851 35.7115 27.7919 35.6787 27.7065 35.6787C27.5619 35.6787 27.3878 35.7641 27.1842 35.9349C26.9871 36.1057 26.7801 36.3324 26.5633 36.6149C26.3531 36.8908 26.1494 37.1963 25.9523 37.5314C25.7618 37.8599 25.6074 38.1917 25.4891 38.5268C25.43 38.5268 25.3544 38.5136 25.2624 38.4874C25.1704 38.4676 25.0916 38.4381 25.0259 38.3987C24.9536 38.3658 24.9175 38.333 24.9175 38.3001C24.9175 38.2738 24.9504 38.1654 25.0161 37.9749C25.0752 37.7844 25.1442 37.5544 25.223 37.285C25.3019 37.0091 25.3774 36.7299 25.4497 36.4474C25.5219 36.1648 25.5647 35.9185 25.5778 35.7082C25.6106 35.6491 25.6763 35.5965 25.7749 35.5505C25.8734 35.498 25.9687 35.4717 26.0607 35.4717C26.1527 35.4717 26.2249 35.498 26.2775 35.5505C26.3301 35.6031 26.3563 35.6721 26.3563 35.7575C26.3563 35.8363 26.3333 35.9645 26.2874 36.1418C26.2479 36.3192 26.1987 36.5196 26.1395 36.743C26.2709 36.5393 26.4188 36.3357 26.583 36.132C26.7473 35.9218 26.9181 35.7312 27.0955 35.5604C27.2729 35.3896 27.4503 35.2516 27.6276 35.1465C27.8116 35.0414 27.989 34.9888 28.1598 34.9888C28.3766 34.9888 28.5245 35.0676 28.6033 35.2253C28.6821 35.383 28.7216 35.5637 28.7216 35.7674C28.7216 35.9053 28.7084 36.0499 28.6821 36.201C28.6559 36.3455 28.623 36.4835 28.5836 36.6149C28.5442 36.7463 28.5047 36.8613 28.4653 36.9598C28.5967 36.7299 28.7413 36.5131 28.899 36.3094C29.0632 36.0991 29.2406 35.9283 29.4311 35.7969C29.6217 35.6655 29.822 35.5998 30.0323 35.5998C30.2557 35.5998 30.4101 35.6688 30.4955 35.8068C30.5875 35.9382 30.6334 36.0926 30.6334 36.27C30.6334 36.4408 30.6039 36.6247 30.5448 36.8219C30.4856 37.019 30.4265 37.2095 30.3674 37.3934C30.3082 37.5774 30.2787 37.7351 30.2787 37.8665C30.2787 37.9453 30.2984 38.0176 30.3378 38.0833C30.3772 38.149 30.4495 38.1818 30.5546 38.1818C30.7386 38.1818 30.9094 38.0997 31.0671 37.9355C31.2313 37.7647 31.3824 37.561 31.5204 37.3245C31.6649 37.0814 31.7865 36.8481 31.885 36.6247L32.0132 36.7923C31.908 37.0617 31.7733 37.3343 31.6091 37.6103C31.4448 37.8862 31.251 38.1129 31.0276 38.2903C30.8108 38.4742 30.5645 38.5662 30.2885 38.5662Z" fill="#031F39"></path><path d="M32.7756 38.6943C32.3683 38.6943 32.0595 38.5826 31.8492 38.3592C31.639 38.1359 31.5339 37.8599 31.5339 37.5314C31.5339 37.2423 31.6061 36.9335 31.7507 36.605C31.9018 36.2765 32.0989 35.9677 32.342 35.6787C32.5917 35.3896 32.8643 35.1563 33.16 34.979C33.4622 34.8016 33.7611 34.7129 34.0568 34.7129C34.2145 34.7129 34.359 34.7556 34.4904 34.841C34.6284 34.9198 34.6974 35.0841 34.6974 35.3337C34.6974 35.5834 34.6251 35.8166 34.4805 36.0334C34.336 36.2503 34.1422 36.4441 33.8991 36.6149C33.656 36.7857 33.3899 36.927 33.1008 37.0387C32.8183 37.1438 32.5325 37.2128 32.2434 37.2456C32.2303 37.2982 32.2204 37.3507 32.2139 37.4033C32.2139 37.4493 32.2139 37.4986 32.2139 37.5511C32.2139 37.63 32.2204 37.7154 32.2336 37.8074C32.2533 37.8993 32.2894 37.988 32.342 38.0734C32.4011 38.1589 32.48 38.2278 32.5785 38.2804C32.6836 38.333 32.8183 38.3592 32.9826 38.3592C33.2651 38.3592 33.5443 38.2804 33.8203 38.1227C34.0962 37.965 34.3524 37.7581 34.5889 37.5019C34.832 37.239 35.0357 36.95 35.2 36.6346L35.3478 36.743C35.1704 37.1372 34.9437 37.4821 34.6678 37.7778C34.3918 38.0669 34.0896 38.2903 33.7611 38.4479C33.4392 38.6122 33.1107 38.6943 32.7756 38.6943ZM32.3124 36.9992C32.4898 36.9533 32.6869 36.8744 32.9037 36.7627C33.1205 36.651 33.3308 36.5196 33.5345 36.3685C33.7381 36.2108 33.9057 36.04 34.0371 35.8561C34.1685 35.6655 34.2342 35.4684 34.2342 35.2647C34.2342 35.1925 34.221 35.1399 34.1947 35.1071C34.1685 35.0742 34.1159 35.0578 34.0371 35.0578C33.886 35.0578 33.7217 35.1169 33.5443 35.2352C33.3735 35.3469 33.206 35.498 33.0417 35.6885C32.884 35.879 32.7395 36.0893 32.6081 36.3192C32.4767 36.5426 32.3781 36.7693 32.3124 36.9992Z" fill="#031F39"></path></svg> 